<svg width="36" height="36" viewBox="0 0 36 36" fill="none" xmlns="http://www.w3.org/2000/svg">
<path fill-rule="evenodd" clip-rule="evenodd" d="M18 36C27.9411 36 36 27.9411 36 18C36 8.05887 27.9411 0 18 0C8.05887 0 0 8.05887 0 18C0 27.9411 8.05887 36 18 36Z" fill="#FD5252"/>
<g clip-path="url(#clip0)">
<path d="M20.606 18.0813L26 21.4913V14.5273L20.606 18.0813Z" fill="white"/>
<path d="M10 14.5273V21.4913L15.394 18.0813L10 14.5273Z" fill="white"/>
<path d="M25 12.5H11C10.501 12.5 10.105 12.872 10.03 13.351L18 18.602L25.97 13.351C25.895 12.872 25.499 12.5 25 12.5Z" fill="white"/>
<path d="M19.69 18.6846L18.275 19.6166C18.191 19.6716 18.096 19.6986 18 19.6986C17.904 19.6986 17.809 19.6716 17.725 19.6166L16.31 18.6836L10.032 22.6546C10.109 23.1296 10.503 23.4986 11 23.4986H25C25.497 23.4986 25.891 23.1296 25.968 22.6546L19.69 18.6846Z" fill="white"/>
</g>
<defs>
<clipPath id="clip0">
<rect width="16" height="16" fill="white" transform="translate(10 10)"/>
</clipPath>
</defs>
</svg>
