<svg width="36" height="36" viewBox="0 0 36 36" fill="none" xmlns="http://www.w3.org/2000/svg">
<path fill-rule="evenodd" clip-rule="evenodd" d="M18 36C27.9411 36 36 27.9411 36 18C36 8.05887 27.9411 0 18 0C8.05887 0 0 8.05887 0 18C0 27.9411 8.05887 36 18 36Z" fill="#2196F3"/>
<path fill-rule="evenodd" clip-rule="evenodd" d="M21.5357 11.0028L19.6575 11C17.5474 11 16.1838 12.3004 16.1838 14.3131V15.8407H14.2953C14.1321 15.8407 14 15.9637 14 16.1153V18.3286C14 18.4803 14.1323 18.6031 14.2953 18.6031H16.1838V24.1879C16.1838 24.3396 16.3159 24.4624 16.4791 24.4624H18.943C19.1062 24.4624 19.2383 24.3394 19.2383 24.1879V18.6031H21.4464C21.6096 18.6031 21.7417 18.4803 21.7417 18.3286L21.7426 16.1153C21.7426 16.0425 21.7114 15.9728 21.6561 15.9212C21.6008 15.8697 21.5255 15.8407 21.4471 15.8407H19.2383V14.5457C19.2383 13.9233 19.3979 13.6074 20.2702 13.6074L21.5354 13.607C21.6985 13.607 21.8306 13.484 21.8306 13.3325V11.2773C21.8306 11.1259 21.6986 11.0031 21.5357 11.0028Z" fill="white"/>
</svg>
