<svg width="36" height="36" viewBox="0 0 36 36" fill="none" xmlns="http://www.w3.org/2000/svg">
<path d="M18.0045 0H17.9955C8.07075 0 0 8.073 0 18C0 21.9375 1.269 25.587 3.42675 28.5503L1.1835 35.2373L8.10225 33.0255C10.9485 34.911 14.3438 36 18.0045 36C27.9292 36 36 27.9247 36 18C36 8.07525 27.9292 0 18.0045 0Z" fill="#1BD741"/>
<path d="M28.4782 25.4199C28.044 26.6461 26.3205 27.6631 24.9457 27.9601C24.0052 28.1604 22.7767 28.3201 18.6412 26.6056C13.3515 24.4141 9.94499 19.0389 9.67949 18.6901C9.42524 18.3414 7.54199 15.8439 7.54199 13.2609C7.54199 10.6779 8.85374 9.42013 9.38249 8.88013C9.81674 8.43688 10.5345 8.23438 11.223 8.23438C11.4457 8.23438 11.646 8.24563 11.826 8.25463C12.3547 8.27713 12.6202 8.30863 12.969 9.14338C13.4032 10.1896 14.4607 12.7726 14.5867 13.0381C14.715 13.3036 14.8432 13.6636 14.6632 14.0124C14.4945 14.3724 14.346 14.5321 14.0805 14.8381C13.815 15.1441 13.563 15.3781 13.2975 15.7066C13.0545 15.9924 12.78 16.2984 13.086 16.8271C13.392 17.3446 14.4495 19.0704 16.0065 20.4564C18.0157 22.2451 19.6447 22.8166 20.2275 23.0596C20.6617 23.2396 21.1792 23.1969 21.4965 22.8594C21.8992 22.4251 22.3965 21.7051 22.9027 20.9964C23.2627 20.4879 23.7172 20.4249 24.1942 20.6049C24.6802 20.7736 27.252 22.0449 27.7807 22.3081C28.3095 22.5736 28.6582 22.6996 28.7865 22.9224C28.9125 23.1451 28.9125 24.1914 28.4782 25.4199Z" fill="#FAFAFA"/>
</svg>
