<svg width="36" height="36" viewBox="0 0 36 36" fill="none" xmlns="http://www.w3.org/2000/svg">
<path d="M17.9999 0C27.9416 0 36 8.0595 36 18.0001C36 27.9406 27.9416 36 17.9999 36C8.05826 36 0 27.9405 0 18.0001C0 8.05962 8.05838 0 17.9999 0Z" fill="#C4302B"/>
<path d="M17.5657 14.626C18.1348 14.626 18.5805 14.4449 18.9067 14.1873C19.2307 13.9286 19.3927 13.5765 19.3927 13.1242V10.3949C19.3927 9.9933 19.2274 9.66138 18.8977 9.40607C18.5658 9.15064 18.1416 9.0236 17.6219 9.0236C17.0538 9.0236 16.5993 9.14397 16.2629 9.3858C15.9254 9.62875 15.7566 9.95277 15.7566 10.3634V13.1016C15.7566 13.5515 15.9209 13.9071 16.2493 14.1737C16.5778 14.4404 17.0178 14.626 17.5657 14.626ZM16.9706 10.4963C16.9706 10.3927 17.0246 10.3095 17.1315 10.2432C17.2395 10.179 17.3791 10.1475 17.5501 10.1475C17.7368 10.1475 17.8876 10.179 18.0013 10.2432C18.1161 10.3095 18.1723 10.3928 18.1723 10.4963V13.0905C18.1723 13.2188 18.1161 13.32 18.0035 13.3931C17.891 13.4652 17.7403 13.5022 17.5501 13.5022C17.3645 13.5022 17.2205 13.4674 17.1203 13.3942C17.0213 13.3233 16.9706 13.2221 16.9706 13.0905V10.4963ZM21.3322 14.6227C21.5324 14.6227 21.7361 14.5079 21.9477 14.3932C22.1614 14.2762 22.365 14.1052 22.5608 13.8825V14.4889H23.624V9.01569H22.5608V13.1703C22.4619 13.2885 22.3516 13.3863 22.2335 13.4639C22.1131 13.5404 22.0141 13.5798 21.9365 13.5798C21.8364 13.5798 21.7633 13.5517 21.7205 13.4921C21.6755 13.4348 21.6508 13.3413 21.6508 13.2131V9.01681H20.5899V13.59C20.5899 13.9162 20.6541 14.1604 20.7766 14.3224C20.9013 14.4854 21.0858 14.6227 21.3322 14.6227ZM24.4237 16.8851H11.5762C9.53322 16.8851 7.8783 18.477 7.8783 20.4379V23.4417C7.8783 25.4037 9.53322 26.9956 11.5762 26.9956H24.4236C26.4655 26.9956 28.1215 25.4037 28.1215 23.4417V20.4379C28.1216 18.4769 26.4656 16.8851 24.4237 16.8851ZM13.4875 19.9339H12.3514V24.6386H11.2523V19.9339H10.116V19.1317H13.4877C13.4875 19.1317 13.4875 19.9339 13.4875 19.9339ZM16.8783 24.7039H15.6937V24.2156C15.4733 24.3957 15.2471 24.534 15.0086 24.6263C14.7735 24.7231 14.544 24.7691 14.3213 24.7691C14.0468 24.7691 13.8421 24.7028 13.7026 24.569C13.5653 24.4373 13.4944 24.2394 13.4944 23.9749V20.2602H14.679V23.6678C14.679 23.7736 14.7038 23.8479 14.7511 23.8951C14.8029 23.9434 14.8849 23.9648 14.9953 23.9648C15.0808 23.9648 15.1932 23.9344 15.326 23.8714C15.4598 23.8095 15.5825 23.7307 15.6939 23.6329V20.259H16.8784C16.8783 20.259 16.8783 24.7039 16.8783 24.7039ZM21.3625 23.8579C21.3625 24.1493 21.2702 24.3709 21.0869 24.5273C20.9058 24.6836 20.6381 24.7601 20.2927 24.7601C20.0621 24.7601 19.8574 24.7308 19.6795 24.6713C19.5007 24.6117 19.3319 24.5194 19.1789 24.3922V24.7072H17.9966V19.1317H19.1789V20.9284C19.3387 20.8047 19.5063 20.7079 19.6807 20.6427C19.8595 20.5763 20.0395 20.5448 20.2207 20.5448C20.5908 20.5448 20.8732 20.6315 21.0678 20.8058C21.2647 20.9813 21.3625 21.239 21.3625 21.5753C21.3625 21.5752 21.3625 23.8579 21.3625 23.8579ZM25.8693 22.6035H23.6869V23.4067C23.6869 23.6306 23.7228 23.7859 23.7982 23.8736C23.8747 23.9602 24.0041 24.003 24.1852 24.003C24.3765 24.003 24.507 23.9659 24.5835 23.8927C24.6578 23.8185 24.6983 23.6576 24.6983 23.4056V23.2121H25.8717V23.4303C25.8717 23.8668 25.7311 24.1954 25.4408 24.417C25.1551 24.6374 24.7275 24.7476 24.1594 24.7476C23.6476 24.7476 23.2448 24.6306 22.9512 24.3967C22.6587 24.165 22.5102 23.841 22.5102 23.4314V21.5166C22.5102 21.1487 22.6722 20.845 22.9962 20.6122C23.3191 20.3805 23.7331 20.2646 24.2449 20.2646C24.7669 20.2646 25.1685 20.3726 25.4498 20.5875C25.7299 20.8024 25.8695 21.1128 25.8695 21.5156C25.8693 21.5156 25.8693 22.6035 25.8693 22.6035ZM12.8509 14.6385H14.193V11.3681L15.7556 6.75562H14.391L13.5607 9.90791H13.4752L12.6045 6.75562H11.2511L12.8507 11.5155C12.8509 11.5155 12.8509 14.6385 12.8509 14.6385ZM19.6683 21.1972L19.4197 21.2377L19.1778 21.3627V23.9254C19.2724 23.9917 19.3657 24.0424 19.4557 24.0704L19.7381 24.1143C19.8821 24.1143 19.9868 24.0861 20.0542 24.0266C20.1206 23.9692 20.1554 23.8747 20.1554 23.7453V21.6202C20.1554 21.4796 20.116 21.3749 20.0328 21.3041C19.9473 21.2333 19.827 21.1972 19.6683 21.1972Z" fill="white"/>
<path d="M24.2484 21.01C24.0661 21.01 23.9367 21.0483 23.8569 21.127C23.7782 21.2024 23.7399 21.3307 23.7399 21.5095V21.9393H24.749V21.5095C24.749 21.3307 24.7073 21.2035 24.6286 21.127C24.5509 21.0483 24.4216 21.01 24.2484 21.01Z" fill="white"/>
</svg>
